<svg id="SvgjsSvg1001" width="288" height="288" xmlns="http://www.w3.org/2000/svg" version="1.1" xmlns:xlink="http://www.w3.org/1999/xlink" xmlns:svgjs="http://svgjs.com/svgjs"><defs id="SvgjsDefs1002"></defs><g id="SvgjsG1008"><svg xmlns="http://www.w3.org/2000/svg" data-name="Layer 1" viewBox="0 0 24 24" width="288" height="288"><path d="M6 6a2 2 0 0 1 2-2 1 1 0 0 0 0-2 4 4 0 0 0-4 4v3a2 2 0 0 1-2 2 1 1 0 0 0 0 2 2 2 0 0 1 2 2v3a4 4 0 0 0 4 4 1 1 0 0 0 0-2 2 2 0 0 1-2-2v-3a4 4 0 0 0-1.38-3A4 4 0 0 0 6 9Zm16 5a2 2 0 0 1-2-2V6a4 4 0 0 0-4-4 1 1 0 0 0 0 2 2 2 0 0 1 2 2v3a4 4 0 0 0 1.38 3A4 4 0 0 0 18 15v3a2 2 0 0 1-2 2 1 1 0 0 0 0 2 4 4 0 0 0 4-4v-3a2 2 0 0 1 2-2 1 1 0 0 0 0-2Z" fill="#ff4057" class="color000 svgShape"></path></svg></g></svg>